<svg preserveAspectRatio="none" overflow="visible" style="display: block;" width="21.5159" height="19.514" viewBox="0 0 21.5159 19.514" fill="none" xmlns="http://www.w3.org/2000/svg">
<path id="Vector" d="M10.7681 6.76392V10.7639M10.7681 14.7639H10.7781M20.498 15.7639L12.498 1.7639C12.3236 1.4561 12.0706 1.20008 11.7649 1.02197C11.4592 0.843846 11.1118 0.75 10.758 0.75C10.4042 0.75 10.0568 0.843846 9.75107 1.02197C9.44539 1.20008 9.19243 1.4561 9.018 1.7639L1.018 15.7639C0.841678 16.0693 0.749224 16.4158 0.750005 16.7684C0.750786 17.121 0.844774 17.4671 1.02244 17.7717C1.20011 18.0763 1.45514 18.3285 1.76169 18.5027C2.06824 18.677 2.4154 18.7671 2.768 18.7639H18.768C19.1189 18.7635 19.4635 18.6709 19.7673 18.4952C20.071 18.3195 20.3232 18.067 20.4985 17.763C20.6738 17.459 20.766 17.1143 20.7659 16.7634C20.7659 16.4125 20.6734 16.0678 20.498 15.7639Z" stroke="#0A0A0A" stroke-width="1.5" stroke-linecap="round" stroke-linejoin="round"/>
</svg>
